<?xml version="1.0" encoding="iso-8859-1"?>
<!-- Generator: Adobe Illustrator 16.0.0, SVG Export Plug-In . SVG Version: 6.00 Build 0)  -->
<!DOCTYPE svg PUBLIC "-//W3C//DTD SVG 1.1//EN" "http://www.w3.org/Graphics/SVG/1.1/DTD/svg11.dtd">
<svg version="1.1" xmlns="http://www.w3.org/2000/svg" xmlns:xlink="http://www.w3.org/1999/xlink" x="0px" y="0px" width="512px"
	 height="512px" viewBox="0 0 512 512" style="enable-background:new 0 0 512 512;" xml:space="preserve">
<g id="D160_x2C__Box_x2C__cargo_x2C__product">
	<g>
		<polygon points="256.028,143.709 99.573,173.818 256,201.741 417.381,172.934 		"/>
		<path d="M213.956,295.118c-0.049,0.063-0.104,0.12-0.156,0.181c-0.108,0.127-0.218,0.25-0.337,0.364
			c-0.065,0.063-0.134,0.121-0.203,0.181c-0.117,0.101-0.237,0.196-0.362,0.285c-0.074,0.054-0.149,0.104-0.226,0.153
			c-0.133,0.084-0.269,0.159-0.409,0.23c-0.076,0.038-0.15,0.078-0.228,0.113c-0.163,0.072-0.33,0.133-0.5,0.188
			c-0.06,0.02-0.117,0.044-0.177,0.061c-0.233,0.066-0.471,0.117-0.713,0.148c-0.037,0.005-0.075,0.003-0.112,0.008
			c-0.176,0.019-0.353,0.035-0.531,0.035c-0.022,0-0.045-0.006-0.068-0.007c-0.292-0.003-0.585-0.026-0.878-0.083L69.972,270.21
			v147.505L251,450.028V228.702l-36.631,65.796C214.246,294.718,214.106,294.923,213.956,295.118z"/>
		<path d="M302.068,297.059c-0.022,0.001-0.046,0.007-0.069,0.007c-0.186,0-0.368-0.017-0.551-0.037
			c-0.03-0.003-0.062-0.002-0.092-0.006c-0.243-0.031-0.481-0.082-0.716-0.148c-0.061-0.018-0.117-0.042-0.178-0.062
			c-0.169-0.055-0.335-0.114-0.497-0.187c-0.079-0.035-0.154-0.076-0.231-0.115c-0.138-0.07-0.272-0.145-0.403-0.228
			c-0.078-0.05-0.154-0.102-0.23-0.155c-0.124-0.089-0.242-0.183-0.357-0.282c-0.07-0.061-0.14-0.119-0.206-0.184
			c-0.118-0.113-0.228-0.235-0.334-0.36c-0.053-0.063-0.108-0.119-0.158-0.185c-0.15-0.194-0.291-0.399-0.413-0.619L261,228.702
			v221.351l185.5-32.354v-148.35l-143.555,27.627C302.652,297.031,302.359,297.055,302.068,297.059z"/>
		<polygon points="248.231,213.117 63.565,179.669 32.983,252.907 65.915,259.245 65.917,259.245 207.392,286.472 		"/>
		<polygon points="248.984,134.796 218.435,61.637 217.919,61.73 33.769,95.084 73.334,166.149 		"/>
		<polygon points="366.821,194.451 263.769,213.117 304.608,286.472 450.556,258.385 450.558,258.385 479.017,252.908 
			448.436,179.669 		"/>
		<path d="M448.605,167.989l30.411-72.832L304.608,61.594l-40.831,73.338l184.129,32.867
			C448.148,167.842,448.378,167.913,448.605,167.989z"/>
	</g>
</g>
<g id="Layer_1">
</g>
</svg>
